<?xml version="1.0" encoding="utf-8"?>
<!-- Generator: Adobe Illustrator 23.0.1, SVG Export Plug-In . SVG Version: 6.00 Build 0)  -->
<svg version="1.1" xmlns="http://www.w3.org/2000/svg" xmlns:xlink="http://www.w3.org/1999/xlink" x="0px" y="0px"
	 viewBox="0 0 128 128" style="enable-background:new 0 0 128 128;" xml:space="preserve">
<style type="text/css">
	.st0{fill:#FFFFFF;}
	.st1{fill:url(#SVGID_1_);}
	.st2{fill:url(#SVGID_2_);}
	.st3{fill:url(#SVGID_3_);}
	.st4{fill:url(#SVGID_4_);}
</style>
<g id="Capa_1">
</g>
<g id="Capa_2">
	<g>
		<g>
			<g>
				<g>
					<path class="st0" d="M63.5,3C29.59,3,2,30.59,2,64.5C2,98.41,29.59,126,63.5,126c33.91,0,61.5-27.59,61.5-61.5
						C125,30.59,97.41,3,63.5,3z"/>
				</g>
			</g>
		</g>
		<g>
			<g>
				<linearGradient id="SVGID_1_" gradientUnits="userSpaceOnUse" x1="63.5" y1="116.6942" x2="63.5" y2="-55.393">
					<stop  offset="0" style="stop-color:#5CA381"/>
					<stop  offset="0.0389" style="stop-color:#5A9B81"/>
					<stop  offset="0.2455" style="stop-color:#50737F"/>
					<stop  offset="0.4489" style="stop-color:#47537E"/>
					<stop  offset="0.6456" style="stop-color:#423D7D"/>
					<stop  offset="0.8327" style="stop-color:#3E307C"/>
					<stop  offset="1" style="stop-color:#3D2B7C"/>
				</linearGradient>
				<path class="st1" d="M63.5,11.75c-29.09,0-52.75,23.66-52.75,52.75c0,29.08,23.66,52.75,52.75,52.75
					c29.08,0,52.75-23.66,52.75-52.75C116.25,35.42,92.58,11.75,63.5,11.75z M63.5,111.39c-25.85,0-46.89-21.03-46.89-46.89
					c0-25.85,21.03-46.89,46.89-46.89c25.85,0,46.89,21.03,46.89,46.89C110.39,90.35,89.35,111.39,63.5,111.39z"/>
				<linearGradient id="SVGID_2_" gradientUnits="userSpaceOnUse" x1="63.5001" y1="116.6942" x2="63.5001" y2="-55.393">
					<stop  offset="0" style="stop-color:#5CA381"/>
					<stop  offset="0.0389" style="stop-color:#5A9B81"/>
					<stop  offset="0.2455" style="stop-color:#50737F"/>
					<stop  offset="0.4489" style="stop-color:#47537E"/>
					<stop  offset="0.6456" style="stop-color:#423D7D"/>
					<stop  offset="0.8327" style="stop-color:#3E307C"/>
					<stop  offset="1" style="stop-color:#3D2B7C"/>
				</linearGradient>
				<path class="st2" d="M74.88,60.1H52.12c-1.18,0-1.81,0.63-1.81,1.81v5.18c0,1.18,0.63,1.81,1.81,1.81h22.76
					c1.18,0,1.8-0.63,1.8-1.81v-5.18C76.69,60.73,76.06,60.1,74.88,60.1z"/>
				<linearGradient id="SVGID_3_" gradientUnits="userSpaceOnUse" x1="63.5001" y1="116.6942" x2="63.5001" y2="-55.393">
					<stop  offset="0" style="stop-color:#5CA381"/>
					<stop  offset="0.0389" style="stop-color:#5A9B81"/>
					<stop  offset="0.2455" style="stop-color:#50737F"/>
					<stop  offset="0.4489" style="stop-color:#47537E"/>
					<stop  offset="0.6456" style="stop-color:#423D7D"/>
					<stop  offset="0.8327" style="stop-color:#3E307C"/>
					<stop  offset="1" style="stop-color:#3D2B7C"/>
				</linearGradient>
				<path class="st3" d="M74.88,77.69H52.12c-1.18,0-1.81,0.63-1.81,1.81v5.18c0,1.18,0.63,1.81,1.81,1.81h22.76
					c1.18,0,1.8-0.63,1.8-1.81v-5.18C76.69,78.32,76.06,77.69,74.88,77.69z"/>
				<linearGradient id="SVGID_4_" gradientUnits="userSpaceOnUse" x1="63.5001" y1="116.6942" x2="63.5001" y2="-55.393">
					<stop  offset="0" style="stop-color:#5CA381"/>
					<stop  offset="0.0389" style="stop-color:#5A9B81"/>
					<stop  offset="0.2455" style="stop-color:#50737F"/>
					<stop  offset="0.4489" style="stop-color:#47537E"/>
					<stop  offset="0.6456" style="stop-color:#423D7D"/>
					<stop  offset="0.8327" style="stop-color:#3E307C"/>
					<stop  offset="1" style="stop-color:#3D2B7C"/>
				</linearGradient>
				<path class="st4" d="M74.88,42.52H52.12c-1.18,0-1.81,0.63-1.81,1.81v5.18c0,1.18,0.63,1.81,1.81,1.81h22.76
					c1.18,0,1.8-0.63,1.8-1.81v-5.18C76.69,43.15,76.06,42.52,74.88,42.52z"/>
			</g>
		</g>
	</g>
</g>
</svg>
